Coordinates
nRows=4
nColumns=38

# SIMM Motion File Header:
name Coordinates
datacolumns 38
datarows 4
otherdata 1
range 0.26700000000000002000 0.27000000000000002000

Units are S.I. units (second, meters, Newtons, ...)
Angles are in degrees.

endheader
time	pelvis_tilt	pelvis_list	pelvis_rotation	pelvis_tx	pelvis_ty	pelvis_tz	hip_flexion_r	hip_adduction_r	hip_rotation_r	knee_angle_r	ankle_angle_r	subtalar_angle_r	mtp_angle_r	hip_flexion_l	hip_adduction_l	hip_rotation_l	knee_angle_l	ankle_angle_l	subtalar_angle_l	mtp_angle_l	lumbar_extension	lumbar_bending	lumbar_rotation	arm_flex_r	arm_add_r	arm_rot_r	elbow_flex_r	pro_sup_r	wrist_flex_r	wrist_dev_r	arm_flex_l	arm_add_l	arm_rot_l	elbow_flex_l	pro_sup_l	wrist_flex_l	wrist_dev_l
      0.26700000000000002000	     -2.74829837501007020000	     -7.08440600647942280000	     -7.93694336586395810000	      0.93341095338133628000	      1.01708387284409010000	     -0.28288493559117955000	     14.83251266254152900000	     15.28639533263394400000	      5.05351257647630450000	    -46.40493759765502800000	     31.23011455831166600000	     -0.00000000000001601869	      0.00000000000001689060	     35.25602029127215800000	     -7.64217635163276210000	     -1.57881048228610580000	   -117.20701979075817000000	      5.86844381671834100000	      0.00000000000000340448	      0.00000000000000047374	    -21.05427271985560700000	      9.35994519926666870000	     15.57731441195056400000	     -1.09846105416673900000	    -33.83374454849333500000	     -6.13010105807165750000	    105.28919138662867000000	    111.13693789629978000000	     -0.00000000000000077964	      0.00000000000000486540	    -14.90210356697229200000	    -20.59165218164069000000	     20.16769918038854600000	    105.73322340108318000000	     91.30871096997972800000	     -0.00000000000000085462	      0.00000000000000087491
      0.26800000000000002000	     -2.76876904373671360000	     -6.99670670270025320000	     -7.96198563939916410000	      0.93335545511791662000	      1.01750665627203250000	     -0.28257807827465786000	     14.47137382725434000000	     15.18784309792157700000	      5.20653204705299100000	    -46.16760039474410600000	     31.22712992090788500000	     -0.00000000000001636106	      0.00000000000001745739	     35.58898649243355500000	     -7.59507654550670890000	     -1.54287917720394520000	   -117.00488422763920000000	      5.93492491043209380000	      0.00000000000000342660	      0.00000000000000054456	    -20.99711618770304300000	      9.21571653347515070000	     15.74984485855998700000	     -1.06363276335931970000	    -33.77739259747005500000	     -6.21447562567587750000	    105.60057598933423000000	    111.10409465923962000000	     -0.00000000000000075322	      0.00000000000000496953	    -15.00652259646094500000	    -20.69657654491595600000	     20.13984689823126200000	    105.92161145068232000000	     91.52204119761700000000	     -0.00000000000000089360	      0.00000000000000080014
      0.26900000000000002000	     -2.79062063510455170000	     -6.90519617100982510000	     -7.98694520774905300000	      0.93330999280030225000	      1.01793640141316000000	     -0.28227131472377087000	     14.10999229900974700000	     15.08438565734968000000	      5.36072144709657830000	    -45.92562214076659200000	     31.21809780273331100000	     -0.00000000000001667965	      0.00000000000001800351	     35.91961911129298800000	     -7.54485737275692880000	     -1.51085285207856800000	   -116.79474822084495000000	      6.00287286951723510000	      0.00000000000000346149	      0.00000000000000059930	    -20.93580713271157700000	      9.06784987614632240000	     15.91970533662953700000	     -1.02995385821412480000	    -33.71892262296307100000	     -6.29891495148296960000	    105.91310479163313000000	    111.07399384297737000000	     -0.00000000000000072653	      0.00000000000000506567	    -15.11346703785873300000	    -20.80200107429559300000	     20.10848110500531400000	    106.11208407841259000000	     91.73321252231998800000	     -0.00000000000000092796	      0.00000000000000072600
      0.27000000000000002000	     -2.81387910644949900000	     -6.80995674714791390000	     -8.01175766732214360000	      0.93327455937306147000	      1.01837295094664420000	     -0.28196484434706176000	     13.74850695876721000000	     14.97606461348540400000	      5.51585580793537210000	    -45.67911225160234800000	     31.20285946834927100000	     -0.00000000000001699782	      0.00000000000001849560	     36.24790669557311400000	     -7.49160929722477230000	     -1.48269647277990790000	   -116.57668140103033000000	      6.07219557462205730000	      0.00000000000000349728	      0.00000000000000065869	    -20.87034819783367800000	      8.91647700795051710000	     16.08684043348158400000	     -0.99732293630346358000	    -33.65836909287516900000	     -6.38327078030339300000	    106.22655293111757000000	    111.04654988200625000000	     -0.00000000000000070097	      0.00000000000000517183	    -15.22290299207237000000	    -20.90785628440150000000	     20.07368292823085900000	    106.30442680750625000000	     91.94179389687064900000	     -0.00000000000000095757	      0.00000000000000065272
